<svg xmlns="http://www.w3.org/2000/svg" viewBox="0 0 23.243 14.389">
    <path fill="#0058a8" d="M26.243,14.32v-.188c-.24-.276-.547-.709-.757-1.006C24.712,12.033,23.98,11,22.923,11c-.887,0-1.672.712-2.982,1.97a17.313,17.313,0,0,1-1.381,1.237,12.84,12.84,0,0,1-.822-1.081C16.963,12.033,16.232,11,15.176,11c-.887,0-1.671.711-2.981,1.969a17.029,17.029,0,0,1-1.382,1.239,12.867,12.867,0,0,1-.821-1.079C9.216,12.034,8.484,11,7.427,11c-.886,0-1.67.711-2.978,1.968A15.2,15.2,0,0,1,3,14.252v2.282c.887,0,1.672-.712,2.982-1.97a17.313,17.313,0,0,1,1.381-1.237,12.84,12.84,0,0,1,.822,1.081c.775,1.094,1.506,2.126,2.562,2.126.887,0,1.671-.711,2.981-1.969a17.028,17.028,0,0,1,1.382-1.239,12.867,12.867,0,0,1,.821,1.079c.776,1.095,1.508,2.128,2.565,2.128.886,0,1.67-.711,2.978-1.968a17.163,17.163,0,0,1,1.384-1.24,12.934,12.934,0,0,1,.822,1.08c.775,1.094,1.506,2.127,2.563,2.127Zm0,8.855v-.188c-.24-.276-.547-.709-.757-1.006-.775-1.094-1.506-2.127-2.563-2.127-.887,0-1.672.712-2.982,1.97a17.313,17.313,0,0,1-1.381,1.237,12.841,12.841,0,0,1-.822-1.081c-.775-1.094-1.506-2.126-2.562-2.126-.887,0-1.671.711-2.981,1.969a17.028,17.028,0,0,1-1.382,1.239,12.867,12.867,0,0,1-.821-1.079c-.776-1.095-1.508-2.128-2.565-2.128-.886,0-1.67.711-2.978,1.968A15.2,15.2,0,0,1,3,23.107v2.282c.887,0,1.672-.712,2.982-1.97a17.313,17.313,0,0,1,1.381-1.237,12.84,12.84,0,0,1,.822,1.081c.775,1.094,1.506,2.126,2.562,2.126.887,0,1.671-.711,2.981-1.969a17.028,17.028,0,0,1,1.382-1.239,12.867,12.867,0,0,1,.821,1.079c.776,1.095,1.508,2.128,2.565,2.128.886,0,1.67-.711,2.978-1.968a17.163,17.163,0,0,1,1.384-1.24,12.934,12.934,0,0,1,.822,1.08c.775,1.094,1.506,2.127,2.563,2.127Z" transform="translate(-3 -11)"></path>
    <g transform="translate(4.334 1.107)">
        <path fill="#0058a8" d="M10.86,14.22a12.84,12.84,0,0,1,.822,1.081c.775,1.094,1.506,2.126,2.562,2.126a2.443,2.443,0,0,0,1.456-.609A8.569,8.569,0,0,1,14.31,15.1a12.867,12.867,0,0,1-.821-1.079c-.244-.345-.485-.679-.732-.981a.445.445,0,0,0-.172-.04,5.021,5.021,0,0,0-1.754,1.243C10.84,14.236,10.851,14.226,10.86,14.22Zm7.748,0a12.868,12.868,0,0,1,.821,1.079c.776,1.095,1.508,2.128,2.565,2.128a2.439,2.439,0,0,0,1.455-.609A8.534,8.534,0,0,1,22.058,15.1a12.84,12.84,0,0,1-.822-1.081c-.244-.344-.484-.678-.731-.98a.454.454,0,0,0-.172-.04,5.04,5.04,0,0,0-1.758,1.247Zm11.133.993v-.188c-.24-.276-.547-.709-.757-1.006-.242-.342-.481-.675-.727-.975A.449.449,0,0,0,28.08,13a5.021,5.021,0,0,0-1.754,1.243c.009-.007.02-.017.029-.023a12.934,12.934,0,0,1,.822,1.08c.775,1.094,1.506,2.127,2.563,2.127ZM10.86,23.074a12.841,12.841,0,0,1,.822,1.081c.775,1.094,1.506,2.126,2.562,2.126a2.443,2.443,0,0,0,1.456-.609,8.569,8.569,0,0,1-1.391-1.718,12.867,12.867,0,0,1-.821-1.079c-.244-.345-.485-.679-.732-.981a.445.445,0,0,0-.172-.04A5.021,5.021,0,0,0,10.831,23.1C10.84,23.091,10.851,23.08,10.86,23.074Zm7.748,0a12.867,12.867,0,0,1,.821,1.079c.776,1.095,1.508,2.128,2.565,2.128a2.439,2.439,0,0,0,1.455-.609,8.534,8.534,0,0,1-1.391-1.718,12.84,12.84,0,0,1-.822-1.081c-.244-.344-.484-.678-.731-.98a.454.454,0,0,0-.172-.04A5.04,5.04,0,0,0,18.574,23.1Zm11.133.993v-.188c-.24-.276-.547-.709-.757-1.006-.242-.342-.481-.675-.727-.975a.449.449,0,0,0-.177-.045A5.021,5.021,0,0,0,26.327,23.1c.009-.007.02-.017.029-.023a12.934,12.934,0,0,1,.822,1.08c.775,1.094,1.506,2.127,2.563,2.127Z" transform="translate(-10.831 -13)"></path>
    </g>
</svg>