<svg xmlns="http://www.w3.org/2000/svg" viewBox="0 0 101 36.252">
    <g id="Group_25" data-name="Group 25" transform="translate(-512 -202)">
        <path id="Path_51" data-name="Path 51" d="M612.139,332.362a1.27,1.27,0,0,1-2.54,0,1.25,1.25,0,0,1,1.283-1.283,1.216,1.216,0,0,1,1.256,1.283Zm-2.284,14.456V335.535h2.051v11.283Z" transform="translate(0.859 -116.884)" fill="#0b71ce" />
        <g id="Group_24" data-name="Group 24">
            <path id="Path_44" data-name="Path 44" d="M405.575,352.97a5.361,5.361,0,0,0,2.694.815c1.492,0,2.189-.744,2.189-1.684s-.583-1.516-2.1-2.075c-2.021-.724-2.984-1.842-2.984-3.193,0-1.822,1.468-3.314,3.893-3.314a5.628,5.628,0,0,1,2.775.7l-.512,1.492a4.4,4.4,0,0,0-2.31-.653c-1.209,0-1.886.7-1.886,1.539,0,.933.674,1.347,2.145,1.913,1.957.744,2.96,1.724,2.96,3.405,0,1.98-1.539,3.368-4.22,3.368a6.43,6.43,0,0,1-3.173-.768Z" transform="translate(136.515 -125.136)" fill="#0b71ce" />
            <path id="Path_45" data-name="Path 45" d="M434.769,334.68v3.243h2.937v1.559h-2.937v6.083c0,1.4.4,2.193,1.539,2.193a4.717,4.717,0,0,0,1.189-.138l.094,1.536a5,5,0,0,1-1.819.28,2.833,2.833,0,0,1-2.216-.862,4.177,4.177,0,0,1-.792-2.937v-6.153H431v-1.559h1.751v-2.694Z" transform="translate(119.305 -119.273)" fill="#0b71ce" />
            <path id="Path_46" data-name="Path 46" d="M457.584,347.319c0-1.33-.024-2.472-.094-3.52h1.8l.071,2.213h.094a3.384,3.384,0,0,1,3.122-2.472,2.171,2.171,0,0,1,.583.071v1.937a3.03,3.03,0,0,0-.7-.071,2.878,2.878,0,0,0-2.752,2.634,5.716,5.716,0,0,0-.094.957v6.015h-2.021Z" transform="translate(101.736 -125.149)" fill="#0b71ce" />
            <path id="Path_47" data-name="Path 47" d="M488.28,349.347c0,4.173-2.893,5.992-5.621,5.992-3.051,0-5.409-2.236-5.409-5.8,0-3.779,2.472-6,5.6-6C486.1,343.54,488.28,345.9,488.28,349.347Zm-8.952.118c0,2.472,1.421,4.335,3.425,4.335s3.429-1.839,3.429-4.378c0-1.913-.957-4.338-3.368-4.338s-3.472,2.236-3.472,4.382Z" transform="translate(88.632 -125.149)" fill="#0b71ce" />
            <path id="Path_48" data-name="Path 48" d="M517.73,328.66h2.051v16.554H517.73Z" transform="translate(61.786 -115.281)" fill="#0b71ce" />
            <path id="Path_49" data-name="Path 49" d="M542.67,349.347c0,4.173-2.893,5.992-5.621,5.992-3.055,0-5.409-2.236-5.409-5.8,0-3.779,2.472-6,5.6-6C540.478,343.54,542.67,345.9,542.67,349.347Zm-8.956.118c0,2.472,1.415,4.335,3.435,4.335s3.429-1.839,3.429-4.378c0-1.913-.957-4.338-3.368-4.338S533.715,347.319,533.715,349.464Z" transform="translate(52.561 -125.149)" fill="#0b71ce" />
            <path id="Path_50" data-name="Path 50" d="M580.189,343.813c-.047.815-.091,1.724-.091,3.1v6.564c0,2.587-.515,4.173-1.61,5.153a6.233,6.233,0,0,1-4.1,1.347,7.4,7.4,0,0,1-3.755-.933l.512-1.563a6.355,6.355,0,0,0,3.311.886c2.1,0,3.638-1.095,3.638-3.941v-1.256h-.047a4.031,4.031,0,0,1-3.59,1.886c-2.8,0-4.8-2.378-4.8-5.5,0-3.826,2.5-6,5.082-6a3.73,3.73,0,0,1,3.523,1.96h.044l.094-1.7Zm-2.122,4.453a3,3,0,0,0-2.984-3.1c-1.957,0-3.368,1.657-3.368,4.267,0,2.216,1.122,4.059,3.334,4.059a3,3,0,0,0,2.846-2.1,3.6,3.6,0,0,0,.162-1.095Z" transform="translate(27.353 -125.163)" fill="#0b71ce" />
            <path id="Path_55" data-name="Path 55" d="M404.05,368.972l.337-.269.259-.2a6.2,6.2,0,0,0,4.237,1.684l.091,1.536-4.254.4" transform="translate(137.178 -141.703)" fill="#0b71ce" />
            <path id="Path_56" data-name="Path 56" d="M323.68,307.968l-1.516,3.536s-7.578-3.7-3.873-11.367c0,0,3.368-7.578,12.209-4.547,0,0,8.589,2.526,5.978,13.472a21.829,21.829,0,0,1-6.568,11.788l-1.6,2.273-7.494,8-2.779-2.526,4.294-5.052,2.189-3.368s6.315-3.873,7.578-9.6c0,0,2.526-10.188-3.7-11.451,0,0-4.21-.842-5.557,2.273A5.784,5.784,0,0,0,323.68,307.968Z" transform="translate(194.729 -92.875)" fill="#0058a8" />
            <path id="Path_57" data-name="Path 57" d="M31.58,77.251H2.53V73.63H31.58Z" transform="translate(510.322 153.171)" fill="#0058a8" />
            <rect id="Rectangle_59" data-name="Rectangle 59" width="3.621" height="36.25" transform="translate(533.649 202.001)" fill="#0058a8" />
        </g>
    </g>
</svg>