<svg xmlns="http://www.w3.org/2000/svg" viewBox="0 0 16.188 14.389">
    <path fill="#0058a8" d="M30.372,18.745a3.372,3.372,0,1,1,3.372-3.372A3.4,3.4,0,0,1,30.372,18.745Zm0-4.946a1.574,1.574,0,1,0,1.574,1.574A1.593,1.593,0,0,0,30.372,13.8Z" transform="translate(-17.557 -10.201)"></path>
    <path fill="#0058a8" d="M20.389,13.081c0-.135-.54-3.282-6.565-3.282a9.912,9.912,0,0,0-6.34,2.023L6.27,10.473A11.848,11.848,0,0,1,13.824,8c7.734,0,8.319,4.631,8.364,4.856ZM9.372,20.59a3.372,3.372,0,1,1,3.372-3.372A3.4,3.4,0,0,1,9.372,20.59Zm0-4.946a1.574,1.574,0,1,0,1.574,1.574A1.593,1.593,0,0,0,9.372,15.644Z" transform="translate(-6 -8)"></path>
    <path fill="#0058a8" d="M14.364,33.781C6.63,33.781,6.045,29.15,6,28.925L7.8,28.7c0,.135.54,3.282,6.565,3.282a9.912,9.912,0,0,0,6.34-2.023l1.214,1.349A11.848,11.848,0,0,1,14.364,33.781Z" transform="translate(-6 -19.392)"></path>
    <path fill="#0058a8" d="M17.967,11.2a3.326,3.326,0,0,1,1.619-.4,3.363,3.363,0,0,1,2.743,1.439,6.27,6.27,0,0,0-2.788-2.338,6.738,6.738,0,0,0-4.541.9A12.77,12.77,0,0,1,17.967,11.2Zm-6.205,9.982a3.326,3.326,0,0,1-1.619.4A3.363,3.363,0,0,1,7.4,20.144a6.27,6.27,0,0,0,2.788,2.338,6.738,6.738,0,0,0,4.541-.9A12.77,12.77,0,0,1,11.762,21.178Z" transform="translate(-6.77 -8.992)"></path>
</svg>