<svg xmlns="http://www.w3.org/2000/svg" viewBox="0 0 13.972 14.389">
    <path fill="#0058a8" d="M8.091,15.031H6.577V8.973A2.907,2.907,0,0,0,5.1,6.625L5.819,5.3A4.388,4.388,0,0,1,8.091,8.973Z" transform="translate(-5.1 -5.186)"></path>
    <path fill="#0058a8" d="M12.029,19.389V17.874A3.013,3.013,0,0,0,15.1,16.057a6.684,6.684,0,0,1-.8-3.484V8.408a1.74,1.74,0,0,0-1.893-1.893,1.8,1.8,0,0,0-1.893,1.893H9A3.316,3.316,0,0,1,12.408,5a3.22,3.22,0,0,1,3.408,3.408v4.165a6.8,6.8,0,0,0,.151,1.628,2.719,2.719,0,0,1,2.5-1.628A2.785,2.785,0,0,1,21.5,15.224a2.785,2.785,0,0,1-3.029,2.651,4.138,4.138,0,0,1-2.31-.644A4.36,4.36,0,0,1,12.029,19.389Zm4.809-3.559a2.323,2.323,0,0,0,1.628.53c.757,0,1.515-.379,1.515-1.136s-.757-1.136-1.515-1.136-1.06.454-1.628,1.742Z" transform="translate(-7.523 -5)"></path>
    <path fill="#0058a8" d="M15.324,16.408a2.056,2.056,0,0,1-.909-.454,15.232,15.232,0,0,1-.682,1.363,3.906,3.906,0,0,0,1.136.53A7.839,7.839,0,0,0,15.324,16.408Zm-2.651-.265a5.575,5.575,0,0,0,.379-.833c.151-.341.3-.682.492-1.022a5.938,5.938,0,0,1-.151-1.25A3.835,3.835,0,0,0,12.105,14.7,4.4,4.4,0,0,0,12.673,16.143ZM5.782,5.2,5.1,6.563A2.976,2.976,0,0,1,6.577,8.911,5.088,5.088,0,0,1,7.22,6.45,4.781,4.781,0,0,0,5.782,5.2Z" transform="translate(-5.1 -5.124)"></path>
</svg>