<svg xmlns="http://www.w3.org/2000/svg" viewBox="0 0 12.311 14.389">
    <path fill="#0058a8" d="M11,27a3,3,0,1,1,3-3A3.02,3.02,0,0,1,11,27Zm0-4.4A1.4,1.4,0,1,0,12.4,24,1.416,1.416,0,0,0,11,22.6Zm6.635,6.795a2.842,2.842,0,0,1-2.838-2.918h1.6a1.241,1.241,0,0,0,1.239,1.319,1.672,1.672,0,0,0,1.279-.8l1.4.8A3.231,3.231,0,0,1,17.633,29.393Z" transform="translate(-8 -15.005)"></path>
    <path fill="#0058a8" d="M21,18.27a.8.8,0,0,1-.8-.8A5.769,5.769,0,0,1,22,13.914c.919-1.119,1.8-2.158,1.8-3.637A2.67,2.67,0,0,0,21.157,7.6,2.579,2.579,0,0,0,18.6,10.277a7.669,7.669,0,0,0,.4,2.518,7.662,7.662,0,0,1,.4,2.4.8.8,0,1,1-1.6,0,6.677,6.677,0,0,0-.32-1.958,9.662,9.662,0,0,1-.48-3A4.171,4.171,0,0,1,21.157,6a4.248,4.248,0,0,1,4.237,4.277c0,2.078-1.159,3.437-2.2,4.676a4.488,4.488,0,0,0-1.4,2.518A.8.8,0,0,1,21,18.27Z" transform="translate(-13.403 -6)"></path>
    <path fill="#0058a8" d="M19.4,22.157h0v-.2a1.639,1.639,0,0,0,.04.44h0A.594.594,0,0,1,19.4,22.157Zm-.04.56c0-.08.04-.12.04-.2V22.4A.88.88,0,0,1,19.358,22.716ZM17,18.2a9.428,9.428,0,0,0,.16,1.239,3.048,3.048,0,0,1,2.2,2.518C19.238,20.238,18.519,18.56,17,18.2Zm6.035,7.914A1.241,1.241,0,0,1,21.8,24.795a2.237,2.237,0,0,1,.32-1.079,2.683,2.683,0,0,0-.719,1.8,2.585,2.585,0,0,0,1.159,2.158,1.946,1.946,0,0,0,.48.04,3.307,3.307,0,0,0,2.678-1.6l-1.4-.8A1.647,1.647,0,0,1,23.035,26.114Z" transform="translate(-13.403 -13.324)"></path>
</svg>