<svg xmlns="http://www.w3.org/2000/svg" viewBox="0 0 16.928 17">
    <path fill="#0058a8" d="M5,32.121H21.928v2.061H5ZM15.691,28h6.237v2.061H15.691ZM5,28h6.237v2.061H5Z" transform="translate(-5 -17.182)"></path>
    <path fill="#0058a8" d="M15.682,7A6.678,6.678,0,0,0,9,13.7c0,2.833,2.539,5.152,4.054,6.079l.4-.927V17.664c-1.381-.979-2.673-2.576-2.673-3.967a4.819,4.819,0,0,1,4.9-4.636,4.819,4.819,0,0,1,4.9,4.636c0,1.391-1.292,2.988-2.673,3.967v1.185l.4.927c1.515-.927,4.054-3.245,4.054-6.079A6.678,6.678,0,0,0,15.682,7Z" transform="translate(-7.218 -7)"></path>
    <path fill="#0058a8" d="M11,16.667a5.5,5.5,0,0,0,1.2,3.452,8.24,8.24,0,0,0,2.361,1.7V19.6c-1.381-.979-2.673-2.576-2.673-3.967A4.819,4.819,0,0,1,16.791,11,5.716,5.716,0,0,0,11,16.667Zm11.582,0A5.716,5.716,0,0,0,16.791,11a4.819,4.819,0,0,1,4.9,4.636c0,1.391-1.292,2.988-2.673,3.967v2.215a7.873,7.873,0,0,0,2.361-1.7A5.5,5.5,0,0,0,22.582,16.667Z" transform="translate(-8.327 -8.939)"></path>
</svg>