<svg xmlns="http://www.w3.org/2000/svg" viewBox="0 0 9.697 14.389">
    <path fill="#0058a8" d="M20.2,19.989a10.358,10.358,0,0,1-2.581-7.194A10.358,10.358,0,0,1,20.2,5.6L21.3,6.695l-.547-.547.547.547a9.325,9.325,0,0,0-2.111,6.1,9.2,9.2,0,0,0,2.111,6.1Zm-7.507,0L11.6,18.894a9.2,9.2,0,0,0,2.111-6.1,9.2,9.2,0,0,0-2.111-6.1L12.695,5.6a10.358,10.358,0,0,1,2.581,7.194A10.358,10.358,0,0,1,12.695,19.989Z" transform="translate(-11.6 -5.6)"></path>
    <path fill="#0058a8" d="M13,22h8.6v1.564H13Z" transform="translate(-12.453 -15.588)"></path>
    <path fill="#0058a8" d="M20.645,20.173h1.564A9.5,9.5,0,0,1,22.365,19h-1.6A10.826,10.826,0,0,0,20.645,20.173Zm-3.988,0H18.22c-.039-.43-.078-.782-.117-1.173H16.5A9.5,9.5,0,0,1,16.656,20.173Zm5.552,1.564H20.645c.039.43.078.782.117,1.173h1.6A9.5,9.5,0,0,1,22.209,21.737Zm-3.988,0H16.656A9.5,9.5,0,0,1,16.5,22.91h1.6A10.827,10.827,0,0,0,18.22,21.737Z" transform="translate(-14.584 -13.761)"></path>
</svg>