<svg xmlns="http://www.w3.org/2000/svg" viewBox="0 0 13.543 17">
    <path fill="#0058a8" d="M16.432,18.582H14.88v-9.6c0-.351-.233-2.235-1.164-2.235-1.164,0-1.164,2.191-1.164,2.191H11C11,7.059,11.854,5,13.716,5c1.979,0,2.716,2.454,2.716,3.987Z" transform="translate(-9.487 -4.649)"></path>
    <path fill="#0058a8" d="M27.6,21.562l-.543-.613-.116-.131a6.644,6.644,0,0,1-2.057-4.863V8.987c0-.351-.233-2.235-1.164-2.235-1.164,0-1.164,2.191-1.164,2.191V9.82H21V8.943C21,7.059,21.854,5,23.716,5c1.979,0,2.716,2.454,2.716,3.987v6.966a4.909,4.909,0,0,0,1.552,3.593l.155.175.543.613Z" transform="translate(-15.606 -4.649)"></path>
    <path fill="#0058a8" d="M20.642,21.256h-3.88V19.5H19.09V16.875h1.552ZM10.165,18.189H8.613V8.55A3.374,3.374,0,0,0,7.1,5.834L7.837,4.3a5.1,5.1,0,0,1,2.328,4.25Z" transform="translate(-7.1 -4.256)"></path>
    <path fill="#0058a8" d="M12.494,8.494a5.41,5.41,0,0,1,.737-2.848,2.359,2.359,0,0,0-.621-.657,3.46,3.46,0,0,0-.97,1.4c.7.394.854,1.84.854,2.1ZM7.8,4.2,7.1,5.777A3.46,3.46,0,0,1,8.613,8.494a5.668,5.668,0,0,1,.737-2.76A5.666,5.666,0,0,0,7.8,4.2Z" transform="translate(-7.1 -4.2)"></path>
</svg>