<svg xmlns="http://www.w3.org/2000/svg" viewBox="0 0 13.542 17">
    <path fill="#0058a8" d="M16.178,27.946C13.31,27.946,11,25.281,11,21.973S13.31,16,16.178,16s5.178,2.665,5.178,5.973S19.046,27.946,16.178,27.946Zm0-10.108a3.873,3.873,0,0,0-3.585,4.135,3.873,3.873,0,0,0,3.585,4.135,3.873,3.873,0,0,0,3.585-4.135A3.873,3.873,0,0,0,16.178,17.838Z" transform="translate(-9.407 -10.946)"></path>
    <path fill="#0058a8" d="M13.771,11.892V10.054c1.633,0,2.031-.827,2.629-2.022C17.037,6.7,17.874,5,20.542,5V6.838c-1.753,0-2.191.873-2.748,2.114C17.117,10.238,16.32,11.892,13.771,11.892Zm0,0c-2.549,0-3.346-1.654-4.023-2.941C9.191,7.711,8.753,6.838,7,6.838V5c2.669,0,3.505,1.7,4.142,3.032.6,1.241,1,2.022,2.629,2.022Z" transform="translate(-7 -5)"></path>
    <path fill="#0058a8" d="M11,23a7.154,7.154,0,0,0,.08.919c.4-2.849,2.509-5.054,5.1-5.054A3.783,3.783,0,0,1,13.47,17.9,6.25,6.25,0,0,0,11,23Zm7.886-5.1a3.783,3.783,0,0,1-2.708.965,5.447,5.447,0,0,1,5.1,5.054,7.154,7.154,0,0,0,.08-.919A6.25,6.25,0,0,0,18.886,17.9Z" transform="translate(-9.407 -11.973)"></path>
</svg>