<svg xmlns="http://www.w3.org/2000/svg" viewBox="0 0 13.047 14.389">
    <path fill="#0058a8" d="M16.219,17.556H14.728V9.392c0-.3-.224-1.9-1.118-1.9-1.118,0-1.118,1.864-1.118,1.864H11C11,7.752,11.82,6,13.609,6c1.9,0,2.609,2.087,2.609,3.392Z" transform="translate(-9.509 -5.702)"></path>
    <path fill="#0058a8" d="M18.619,19.652,18.1,19.13l-.112-.112a5.406,5.406,0,0,1-1.976-4.138V8.953c0-.3-.224-1.9-1.118-1.9-1.118,0-1.118,1.864-1.118,1.864v.746H12.281V8.916c0-1.6.82-3.355,2.609-3.355,1.9,0,2.609,2.087,2.609,3.392V14.88a4,4,0,0,0,1.491,3.057l.149.149.522.522Zm-8.574-2.535H8.554v-8.2A2.862,2.862,0,0,0,7.1,6.6l.708-1.3a4.319,4.319,0,0,1,2.237,3.616Z" transform="translate(-7.063 -5.263)"></path>
    <path fill="#0058a8" d="M26.873,24.146,26.5,22.692A5.866,5.866,0,0,0,30.787,17.1c0-.634,0-2.609-.373-2.609-.3,0-.746,1.193-.746,2.237H28.177c0-1.044.41-3.728,2.237-3.728,1.864,0,1.864,2.386,1.864,4.1C32.278,18.666,31.309,23.027,26.873,24.146Z" transform="translate(-19.231 -10.092)"></path>
    <path fill="#0058a8" d="M12.181,8.853A4.2,4.2,0,0,1,12.89,6.43a2.134,2.134,0,0,0-.6-.559,2.968,2.968,0,0,0-.932,1.193c.671.335.82,1.566.82,1.789ZM7.708,5.2,7,6.542A2.843,2.843,0,0,1,8.454,8.853,4.4,4.4,0,0,1,9.162,6.5,6,6,0,0,0,7.708,5.2ZM18.183,17.091A5.584,5.584,0,0,1,17.1,18.1a8.8,8.8,0,0,0,.783.82,5.755,5.755,0,0,0,1.081-1.044l-.037-.037A4.621,4.621,0,0,1,18.183,17.091Zm-.708-1.9h0c0-.149-.037-.261-.037-.373v-.783c-.41.522-.932,1.044-1.417,1.566a2.792,2.792,0,0,0,.149.6v.037a3.28,3.28,0,0,0,.186.559h0a5.247,5.247,0,0,0,1.156-1.267A1.032,1.032,0,0,1,17.475,15.19Z" transform="translate(-7 -5.2)"></path>
</svg>